<svg width="33" height="32" viewBox="0 0 33 32" fill="none" xmlns="http://www.w3.org/2000/svg">
<mask id="path-1-outside-1_9136_19189" maskUnits="userSpaceOnUse" x="0.5" y="0" width="32" height="32" fill="black">
<rect fill="white" x="0.5" width="32" height="32"/>
<path d="M2.5 16C2.5 8.26801 8.76801 2 16.5 2C24.232 2 30.5 8.26801 30.5 16C30.5 23.732 24.232 30 16.5 30C8.76801 30 2.5 23.732 2.5 16Z"/>
</mask>
<path d="M2.5 16C2.5 8.26801 8.76801 2 16.5 2C24.232 2 30.5 8.26801 30.5 16C30.5 23.732 24.232 30 16.5 30C8.76801 30 2.5 23.732 2.5 16Z" fill="#D69CA5"/>
<path d="M16.5 28C9.87258 28 4.5 22.6274 4.5 16H0.5C0.5 24.8366 7.66344 32 16.5 32V28ZM28.5 16C28.5 22.6274 23.1274 28 16.5 28V32C25.3366 32 32.5 24.8366 32.5 16H28.5ZM16.5 4C23.1274 4 28.5 9.37258 28.5 16H32.5C32.5 7.16344 25.3366 0 16.5 0V4ZM16.5 0C7.66344 0 0.5 7.16344 0.5 16H4.5C4.5 9.37258 9.87258 4 16.5 4V0Z" fill="#FAFAFA" mask="url(#path-1-outside-1_9136_19189)"/>
</svg>
