<svg width="1001" height="900" viewBox="0 0 1001 900" fill="none" xmlns="http://www.w3.org/2000/svg">
<path d="M-9.40948 -44.593C269.17 -44.593 495.003 181.376 495.003 460.122C495.002 738.868 269.17 964.837 -9.40952 964.837M495.257 460.122L-513.822 460.122M495.257 480.27C484.137 480.27 475.122 471.249 475.122 460.122C475.122 448.995 484.137 439.974 495.257 439.974C506.378 439.974 515.393 448.995 515.393 460.122C515.393 471.249 506.378 480.27 495.257 480.27ZM495.079 -44.6695L495.079 965.015L-514 965.015L-514 -44.6695L495.079 -44.6695ZM495.257 964.837C216.678 964.837 -9.15455 738.868 -9.15454 460.122C-9.15453 181.375 216.678 -44.5933 495.258 -44.5933C773.837 -44.5933 999.669 181.375 999.669 460.122C999.669 738.868 773.836 964.837 495.257 964.837ZM495.257 763.104C328.026 763.104 192.457 627.454 192.457 460.122C192.457 292.79 328.026 157.14 495.258 157.14C662.489 157.14 798.058 292.79 798.058 460.122C798.058 627.454 662.489 763.104 495.257 763.104ZM495.257 561.116C439.513 561.116 394.324 515.899 394.324 460.122C394.324 404.344 439.513 359.128 495.257 359.128C551.001 359.128 596.191 404.344 596.191 460.122C596.191 515.899 551.001 561.116 495.257 561.116Z" stroke="#D4D4D8" stroke-miterlimit="10"/>
<path d="M101.828 92.12C108.855 92.12 114.363 94.0693 118.352 97.968C122.387 101.821 124.404 107.352 124.404 114.56C124.404 121.768 122.387 127.321 118.352 131.22C114.363 135.073 108.855 137 101.828 137H87.344V92.12H101.828ZM102.372 131.9C107.495 131.9 111.484 130.381 114.34 127.344C117.241 124.261 118.692 120 118.692 114.56C118.692 109.12 117.241 104.881 114.34 101.844C111.484 98.7613 107.495 97.22 102.372 97.22H92.784V131.9H102.372ZM136.352 137V92.12H167.836V97.22H141.792V111.704H162.056V116.804H141.792V131.9H168.856V137H136.352ZM214.895 125.508C213.943 128.047 212.583 130.245 210.815 132.104C209.047 133.917 206.962 135.3 204.559 136.252C202.202 137.204 199.618 137.68 196.807 137.68C192.546 137.68 188.851 136.751 185.723 134.892C182.64 132.988 180.238 130.313 178.515 126.868C176.838 123.423 175.999 119.32 175.999 114.56C175.999 109.8 176.838 105.697 178.515 102.252C180.238 98.8067 182.64 96.1547 185.723 94.296C188.851 92.392 192.5 91.44 196.671 91.44C199.572 91.44 202.156 91.848 204.423 92.664C206.69 93.4347 208.616 94.6133 210.203 96.2C211.835 97.7413 213.127 99.6453 214.079 101.912L208.707 104.428C207.71 101.844 206.259 99.8947 204.355 98.58C202.496 97.22 200.071 96.54 197.079 96.54C194.042 96.54 191.367 97.2653 189.055 98.716C186.743 100.121 184.93 102.161 183.615 104.836C182.346 107.511 181.711 110.752 181.711 114.56C181.711 118.323 182.323 121.564 183.547 124.284C184.771 126.959 186.516 129.021 188.783 130.472C191.05 131.877 193.724 132.58 196.807 132.58C199.799 132.58 202.406 131.832 204.627 130.336C206.848 128.795 208.458 126.505 209.455 123.468L214.895 125.508ZM230.776 92.12V137H225.336V92.12H230.776ZM259.873 91.44C263.817 91.44 267.217 92.256 270.073 93.888C272.929 95.4747 275.309 97.832 277.213 100.96L272.657 104.496C270.98 101.595 269.076 99.5547 266.945 98.376C264.86 97.152 262.321 96.54 259.329 96.54C256.927 96.54 254.932 96.88 253.345 97.56C251.804 98.24 250.671 99.1467 249.945 100.28C249.22 101.368 248.857 102.615 248.857 104.02C248.857 105.607 249.356 107.012 250.353 108.236C251.351 109.415 253.345 110.344 256.337 111.024L266.061 113.2C270.368 114.152 273.36 115.603 275.037 117.552C276.76 119.456 277.621 121.836 277.621 124.692C277.621 127.231 276.896 129.497 275.445 131.492C274.04 133.441 272.045 134.96 269.461 136.048C266.877 137.136 263.84 137.68 260.349 137.68C257.085 137.68 254.207 137.249 251.713 136.388C249.265 135.481 247.157 134.28 245.389 132.784C243.621 131.288 242.171 129.611 241.037 127.752L245.797 123.876C246.659 125.599 247.769 127.117 249.129 128.432C250.489 129.747 252.121 130.767 254.025 131.492C255.975 132.217 258.196 132.58 260.689 132.58C263.001 132.58 264.996 132.308 266.673 131.764C268.396 131.175 269.711 130.336 270.617 129.248C271.524 128.115 271.977 126.755 271.977 125.168C271.977 123.717 271.501 122.425 270.549 121.292C269.597 120.113 267.807 119.229 265.177 118.64L254.637 116.26C251.872 115.625 249.628 114.764 247.905 113.676C246.228 112.543 245.004 111.228 244.233 109.732C243.508 108.191 243.145 106.536 243.145 104.768C243.145 102.365 243.803 100.167 245.117 98.172C246.477 96.132 248.404 94.5 250.897 93.276C253.436 92.052 256.428 91.44 259.873 91.44ZM307.108 91.44C311.369 91.44 315.041 92.392 318.124 94.296C321.252 96.1547 323.654 98.8067 325.332 102.252C327.054 105.697 327.916 109.8 327.916 114.56C327.916 119.32 327.054 123.423 325.332 126.868C323.654 130.313 321.252 132.988 318.124 134.892C315.041 136.751 311.369 137.68 307.108 137.68C302.846 137.68 299.152 136.751 296.024 134.892C292.941 132.988 290.538 130.313 288.816 126.868C287.138 123.423 286.3 119.32 286.3 114.56C286.3 109.8 287.138 105.697 288.816 102.252C290.538 98.8067 292.941 96.1547 296.024 94.296C299.152 92.392 302.846 91.44 307.108 91.44ZM307.108 96.54C304.025 96.54 301.35 97.2653 299.084 98.716C296.817 100.121 295.072 102.184 293.848 104.904C292.624 107.579 292.012 110.797 292.012 114.56C292.012 118.323 292.624 121.564 293.848 124.284C295.072 126.959 296.817 129.021 299.084 130.472C301.35 131.877 304.025 132.58 307.108 132.58C310.236 132.58 312.91 131.877 315.132 130.472C317.398 129.021 319.144 126.959 320.368 124.284C321.592 121.564 322.204 118.323 322.204 114.56C322.204 110.797 321.592 107.579 320.368 104.904C319.144 102.184 317.398 100.121 315.132 98.716C312.91 97.2653 310.236 96.54 307.108 96.54ZM319.348 77.364C319.212 79.3587 318.826 81.036 318.192 82.396C317.602 83.756 316.764 84.776 315.676 85.456C314.633 86.136 313.318 86.476 311.732 86.476C310.462 86.476 309.374 86.2493 308.468 85.796C307.606 85.2973 306.858 84.7533 306.224 84.164C305.589 83.5747 304.954 83.0533 304.32 82.6C303.73 82.1013 303.073 81.852 302.348 81.852C301.35 81.852 300.602 82.2827 300.104 83.144C299.605 83.96 299.242 85.0933 299.016 86.544H294.732C294.958 83.552 295.684 81.2853 296.908 79.744C298.177 78.2027 300.013 77.432 302.416 77.432C303.64 77.432 304.682 77.6813 305.544 78.18C306.45 78.6333 307.221 79.1547 307.856 79.744C308.536 80.3333 309.17 80.8773 309.76 81.376C310.349 81.8293 310.984 82.056 311.664 82.056C312.706 82.056 313.477 81.648 313.976 80.832C314.474 79.9707 314.837 78.8147 315.064 77.364H319.348ZM339.887 137V92.12H371.371V97.22H345.327V111.704H365.591V116.804H345.327V131.9H372.391V137H339.887ZM397.666 91.44C401.61 91.44 405.01 92.256 407.866 93.888C410.722 95.4747 413.102 97.832 415.006 100.96L410.45 104.496C408.773 101.595 406.869 99.5547 404.738 98.376C402.653 97.152 400.114 96.54 397.122 96.54C394.72 96.54 392.725 96.88 391.138 97.56C389.597 98.24 388.464 99.1467 387.738 100.28C387.013 101.368 386.65 102.615 386.65 104.02C386.65 105.607 387.149 107.012 388.146 108.236C389.144 109.415 391.138 110.344 394.13 111.024L403.854 113.2C408.161 114.152 411.153 115.603 412.83 117.552C414.553 119.456 415.414 121.836 415.414 124.692C415.414 127.231 414.689 129.497 413.238 131.492C411.833 133.441 409.838 134.96 407.254 136.048C404.67 137.136 401.633 137.68 398.142 137.68C394.878 137.68 392 137.249 389.506 136.388C387.058 135.481 384.95 134.28 383.182 132.784C381.414 131.288 379.964 129.611 378.83 127.752L383.59 123.876C384.452 125.599 385.562 127.117 386.922 128.432C388.282 129.747 389.914 130.767 391.818 131.492C393.768 132.217 395.989 132.58 398.482 132.58C400.794 132.58 402.789 132.308 404.466 131.764C406.189 131.175 407.504 130.336 408.41 129.248C409.317 128.115 409.77 126.755 409.77 125.168C409.77 123.717 409.294 122.425 408.342 121.292C407.39 120.113 405.6 119.229 402.97 118.64L392.43 116.26C389.665 115.625 387.421 114.764 385.698 113.676C384.021 112.543 382.797 111.228 382.026 109.732C381.301 108.191 380.938 106.536 380.938 104.768C380.938 102.365 381.596 100.167 382.91 98.172C384.27 96.132 386.197 94.5 388.69 93.276C391.229 92.052 394.221 91.44 397.666 91.44ZM92.784 160.12V205H87.344V160.12H92.784ZM142.689 160.12V205H135.957L117.189 174.944L112.429 166.512H112.361L112.633 173.312V205H107.465V160.12H114.197L132.897 190.04L137.725 198.676H137.793L137.521 191.808V160.12H142.689ZM188.955 160.12V165.22H173.315V205H167.875V165.22H152.235V160.12H188.955ZM198.442 205V160.12H229.926V165.22H203.882V179.704H224.146V184.804H203.882V199.9H230.946V205H198.442ZM247.245 199.9H272.949V205H241.805V160.12H247.245V199.9ZM287.886 160.12V205H282.446V160.12H287.886ZM320.655 205.68C316.393 205.68 312.699 204.751 309.571 202.892C306.488 200.988 304.085 198.313 302.363 194.868C300.685 191.423 299.847 187.32 299.847 182.56C299.847 177.8 300.731 173.697 302.499 170.252C304.312 166.807 306.828 164.155 310.047 162.296C313.265 160.392 316.96 159.44 321.131 159.44C325.573 159.44 329.177 160.279 331.943 161.956C334.753 163.633 337.02 166.217 338.743 169.708L333.779 172.428C332.781 169.844 331.195 167.895 329.019 166.58C326.888 165.22 324.259 164.54 321.131 164.54C318.093 164.54 315.396 165.265 313.039 166.716C310.727 168.121 308.891 170.184 307.531 172.904C306.216 175.579 305.559 178.797 305.559 182.56C305.559 186.323 306.125 189.564 307.259 192.284C308.437 194.959 310.16 197.021 312.427 198.472C314.739 199.877 317.549 200.58 320.859 200.58C322.717 200.58 324.44 200.353 326.027 199.9C327.659 199.401 329.064 198.676 330.243 197.724C331.467 196.772 332.419 195.571 333.099 194.12C333.779 192.669 334.119 190.969 334.119 189.02V187.456H319.839V182.356H339.083V205H334.799L334.527 196.636L335.683 196.84C334.504 199.651 332.645 201.827 330.107 203.368C327.568 204.909 324.417 205.68 320.655 205.68ZM351.774 205V160.12H383.258V165.22H357.214V179.704H377.478V184.804H357.214V199.9H384.278V205H351.774ZM430.361 160.12V205H423.629L404.861 174.944L400.101 166.512H400.033L400.305 173.312V205H395.137V160.12H401.869L420.569 190.04L425.397 198.676H425.465L425.193 191.808V160.12H430.361ZM476.626 160.12V165.22H460.986V205H455.546V165.22H439.906V160.12H476.626ZM486.114 205V160.12H517.598V165.22H491.554V179.704H511.818V184.804H491.554V199.9H518.618V205H486.114ZM543.893 159.44C547.837 159.44 551.237 160.256 554.093 161.888C556.949 163.475 559.329 165.832 561.233 168.96L556.677 172.496C554.999 169.595 553.095 167.555 550.965 166.376C548.879 165.152 546.341 164.54 543.349 164.54C540.946 164.54 538.951 164.88 537.365 165.56C535.823 166.24 534.69 167.147 533.965 168.28C533.239 169.368 532.877 170.615 532.877 172.02C532.877 173.607 533.375 175.012 534.373 176.236C535.37 177.415 537.365 178.344 540.357 179.024L550.081 181.2C554.387 182.152 557.379 183.603 559.057 185.552C560.779 187.456 561.641 189.836 561.641 192.692C561.641 195.231 560.915 197.497 559.465 199.492C558.059 201.441 556.065 202.96 553.481 204.048C550.897 205.136 547.859 205.68 544.369 205.68C541.105 205.68 538.226 205.249 535.733 204.388C533.285 203.481 531.177 202.28 529.409 200.784C527.641 199.288 526.19 197.611 525.057 195.752L529.817 191.876C530.678 193.599 531.789 195.117 533.149 196.432C534.509 197.747 536.141 198.767 538.045 199.492C539.994 200.217 542.215 200.58 544.709 200.58C547.021 200.58 549.015 200.308 550.693 199.764C552.415 199.175 553.73 198.336 554.637 197.248C555.543 196.115 555.997 194.755 555.997 193.168C555.997 191.717 555.521 190.425 554.569 189.292C553.617 188.113 551.826 187.229 549.197 186.64L538.657 184.26C535.891 183.625 533.647 182.764 531.925 181.676C530.247 180.543 529.023 179.228 528.253 177.732C527.527 176.191 527.165 174.536 527.165 172.768C527.165 170.365 527.822 168.167 529.137 166.172C530.497 164.132 532.423 162.5 534.917 161.276C537.455 160.052 540.447 159.44 543.893 159.44ZM574.739 196.84C575.827 196.84 576.734 197.135 577.459 197.724C578.23 198.268 578.819 199.039 579.227 200.036C579.635 200.988 579.839 202.121 579.839 203.436C579.839 204.932 579.567 206.405 579.023 207.856C578.525 209.307 577.731 210.644 576.643 211.868C575.555 213.092 574.15 214.112 572.427 214.928L569.571 212.276C570.795 211.868 571.861 211.301 572.767 210.576C573.719 209.851 574.49 209.035 575.079 208.128C575.669 207.221 576.054 206.292 576.235 205.34L575.963 205.204C575.782 205.34 575.555 205.453 575.283 205.544C575.011 205.635 574.603 205.68 574.059 205.68C573.515 205.68 572.949 205.521 572.359 205.204C571.815 204.887 571.339 204.433 570.931 203.844C570.523 203.209 570.319 202.393 570.319 201.396C570.319 200.58 570.523 199.832 570.931 199.152C571.339 198.427 571.861 197.86 572.495 197.452C573.175 197.044 573.923 196.84 574.739 196.84ZM103.188 228.12C106.225 228.12 108.855 228.687 111.076 229.82C113.343 230.908 115.111 232.472 116.38 234.512C117.649 236.552 118.284 238.977 118.284 241.788C118.284 244.599 117.649 247.024 116.38 249.064C115.111 251.104 113.343 252.691 111.076 253.824C108.855 254.912 106.225 255.456 103.188 255.456H92.784V273H87.344V228.12H103.188ZM102.372 250.356C105.908 250.356 108.492 249.631 110.124 248.18C111.756 246.684 112.572 244.553 112.572 241.788C112.572 238.977 111.756 236.847 110.124 235.396C108.492 233.945 105.908 233.22 102.372 233.22H92.784V250.356H102.372ZM145.848 228.12C150.427 228.12 154.099 229.299 156.864 231.656C159.629 234.013 161.012 237.209 161.012 241.244C161.012 245.279 159.607 248.429 156.796 250.696C154.031 252.917 150.359 254.028 145.78 254.028L145.304 254.368H134.288V273H128.848V228.12H145.848ZM145.78 249.268C148.999 249.268 151.379 248.611 152.92 247.296C154.507 245.936 155.3 243.919 155.3 241.244C155.3 238.569 154.507 236.575 152.92 235.26C151.379 233.9 148.999 233.22 145.78 233.22H134.288V249.268H145.78ZM148.908 250.356L163.732 273H157.272L144.352 253.348L148.908 250.356ZM191.76 227.44C196.021 227.44 199.693 228.392 202.776 230.296C205.904 232.155 208.307 234.807 209.984 238.252C211.707 241.697 212.568 245.8 212.568 250.56C212.568 255.32 211.707 259.423 209.984 262.868C208.307 266.313 205.904 268.988 202.776 270.892C199.693 272.751 196.021 273.68 191.76 273.68C187.499 273.68 183.804 272.751 180.676 270.892C177.593 268.988 175.191 266.313 173.468 262.868C171.791 259.423 170.952 255.32 170.952 250.56C170.952 245.8 171.791 241.697 173.468 238.252C175.191 234.807 177.593 232.155 180.676 230.296C183.804 228.392 187.499 227.44 191.76 227.44ZM191.76 232.54C188.677 232.54 186.003 233.265 183.736 234.716C181.469 236.121 179.724 238.184 178.5 240.904C177.276 243.579 176.664 246.797 176.664 250.56C176.664 254.323 177.276 257.564 178.5 260.284C179.724 262.959 181.469 265.021 183.736 266.472C186.003 267.877 188.677 268.58 191.76 268.58C194.888 268.58 197.563 267.877 199.784 266.472C202.051 265.021 203.796 262.959 205.02 260.284C206.244 257.564 206.856 254.323 206.856 250.56C206.856 246.797 206.244 243.579 205.02 240.904C203.796 238.184 202.051 236.121 199.784 234.716C197.563 233.265 194.888 232.54 191.76 232.54ZM239.023 228.12C246.05 228.12 251.558 230.069 255.547 233.968C259.582 237.821 261.599 243.352 261.599 250.56C261.599 257.768 259.582 263.321 255.547 267.22C251.558 271.073 246.05 273 239.023 273H224.539V228.12H239.023ZM239.567 267.9C244.69 267.9 248.679 266.381 251.535 263.344C254.437 260.261 255.887 256 255.887 250.56C255.887 245.12 254.437 240.881 251.535 237.844C248.679 234.761 244.69 233.22 239.567 233.22H229.979V267.9H239.567ZM307.887 228.12V256.272C307.887 262.029 306.368 266.381 303.331 269.328C300.294 272.229 295.942 273.68 290.275 273.68C284.654 273.68 280.302 272.229 277.219 269.328C274.182 266.381 272.663 262.029 272.663 256.272V228.12H278.103V254.912C278.103 259.581 279.078 263.027 281.027 265.248C283.022 267.469 286.104 268.58 290.275 268.58C294.446 268.58 297.506 267.469 299.455 265.248C301.45 263.027 302.447 259.581 302.447 254.912V228.12H307.887ZM357.868 261.508C356.916 264.047 355.556 266.245 353.788 268.104C352.02 269.917 349.934 271.3 347.532 272.252C345.174 273.204 342.59 273.68 339.78 273.68C335.518 273.68 331.824 272.751 328.696 270.892C325.613 268.988 323.21 266.313 321.488 262.868C319.81 259.423 318.972 255.32 318.972 250.56C318.972 245.8 319.81 241.697 321.488 238.252C323.21 234.807 325.613 232.155 328.696 230.296C331.824 228.392 335.473 227.44 339.644 227.44C342.545 227.44 345.129 227.848 347.396 228.664C349.662 229.435 351.589 230.613 353.176 232.2C354.808 233.741 356.1 235.645 357.052 237.912L351.68 240.428C350.682 237.844 349.232 235.895 347.328 234.58C345.469 233.22 343.044 232.54 340.052 232.54C337.014 232.54 334.34 233.265 332.028 234.716C329.716 236.121 327.902 238.161 326.588 240.836C325.318 243.511 324.684 246.752 324.684 250.56C324.684 254.323 325.296 257.564 326.52 260.284C327.744 262.959 329.489 265.021 331.756 266.472C334.022 267.877 336.697 268.58 339.78 268.58C342.772 268.58 345.378 267.832 347.6 266.336C349.821 264.795 351.43 262.505 352.428 259.468L357.868 261.508ZM335.904 272.728L338.76 271.028C341.434 271.889 343.338 273.045 344.472 274.496C345.605 275.992 346.172 277.737 346.172 279.732C346.172 281.908 345.401 283.767 343.86 285.308C342.318 286.849 340.346 287.62 337.944 287.62C336.538 287.62 335.292 287.439 334.204 287.076C333.161 286.713 332.254 286.237 331.484 285.648L332.776 281.704C333.41 282.112 334.068 282.475 334.748 282.792C335.473 283.109 336.334 283.268 337.332 283.268C338.601 283.268 339.644 282.86 340.46 282.044C341.276 281.228 341.684 280.049 341.684 278.508C341.684 277.329 341.253 276.309 340.392 275.448C339.53 274.587 338.034 273.68 335.904 272.728ZM404.077 273H398.297L393.537 260.556H373.205L368.445 273H362.733L380.209 228.12H386.669L404.077 273ZM375.177 255.456H391.565L383.337 233.356L375.177 255.456ZM395.645 213.364C395.509 215.359 395.124 217.036 394.489 218.396C393.9 219.756 393.061 220.776 391.973 221.456C390.93 222.136 389.616 222.476 388.029 222.476C386.76 222.476 385.672 222.249 384.765 221.796C383.904 221.297 383.156 220.753 382.521 220.164C381.886 219.575 381.252 219.053 380.617 218.6C380.028 218.101 379.37 217.852 378.645 217.852C377.648 217.852 376.9 218.283 376.401 219.144C375.902 219.96 375.54 221.093 375.313 222.544H371.029C371.256 219.552 371.981 217.285 373.205 215.744C374.474 214.203 376.31 213.432 378.713 213.432C379.937 213.432 380.98 213.681 381.841 214.18C382.748 214.633 383.518 215.155 384.153 215.744C384.833 216.333 385.468 216.877 386.057 217.376C386.646 217.829 387.281 218.056 387.961 218.056C389.004 218.056 389.774 217.648 390.273 216.832C390.772 215.971 391.134 214.815 391.361 213.364H395.645ZM429.76 227.44C434.021 227.44 437.693 228.392 440.776 230.296C443.904 232.155 446.307 234.807 447.984 238.252C449.707 241.697 450.568 245.8 450.568 250.56C450.568 255.32 449.707 259.423 447.984 262.868C446.307 266.313 443.904 268.988 440.776 270.892C437.693 272.751 434.021 273.68 429.76 273.68C425.499 273.68 421.804 272.751 418.676 270.892C415.593 268.988 413.191 266.313 411.468 262.868C409.791 259.423 408.952 255.32 408.952 250.56C408.952 245.8 409.791 241.697 411.468 238.252C413.191 234.807 415.593 232.155 418.676 230.296C421.804 228.392 425.499 227.44 429.76 227.44ZM429.76 232.54C426.677 232.54 424.003 233.265 421.736 234.716C419.469 236.121 417.724 238.184 416.5 240.904C415.276 243.579 414.664 246.797 414.664 250.56C414.664 254.323 415.276 257.564 416.5 260.284C417.724 262.959 419.469 265.021 421.736 266.472C424.003 267.877 426.677 268.58 429.76 268.58C432.888 268.58 435.563 267.877 437.784 266.472C440.051 265.021 441.796 262.959 443.02 260.284C444.244 257.564 444.856 254.323 444.856 250.56C444.856 246.797 444.244 243.579 443.02 240.904C441.796 238.184 440.051 236.121 437.784 234.716C435.563 233.265 432.888 232.54 429.76 232.54ZM87.344 341V296.12H118.828V301.22H92.784V315.704H113.048V320.804H92.784V335.9H119.848V341H87.344ZM162.123 301.22H136.147V315.704H156.411V320.804H136.147V341H130.707V296.12H162.123V301.22ZM177.651 296.12V341H172.211V296.12H177.651ZM228.508 329.508C227.556 332.047 226.196 334.245 224.428 336.104C222.66 337.917 220.575 339.3 218.172 340.252C215.815 341.204 213.231 341.68 210.42 341.68C206.159 341.68 202.464 340.751 199.336 338.892C196.254 336.988 193.851 334.313 192.128 330.868C190.451 327.423 189.612 323.32 189.612 318.56C189.612 313.8 190.451 309.697 192.128 306.252C193.851 302.807 196.254 300.155 199.336 298.296C202.464 296.392 206.114 295.44 210.284 295.44C213.186 295.44 215.77 295.848 218.036 296.664C220.303 297.435 222.23 298.613 223.816 300.2C225.448 301.741 226.74 303.645 227.692 305.912L222.32 308.428C221.323 305.844 219.872 303.895 217.968 302.58C216.11 301.22 213.684 300.54 210.692 300.54C207.655 300.54 204.98 301.265 202.668 302.716C200.356 304.121 198.543 306.161 197.228 308.836C195.959 311.511 195.324 314.752 195.324 318.56C195.324 322.323 195.936 325.564 197.16 328.284C198.384 330.959 200.13 333.021 202.396 334.472C204.663 335.877 207.338 336.58 210.42 336.58C213.412 336.58 216.019 335.832 218.24 334.336C220.462 332.795 222.071 330.505 223.068 327.468L228.508 329.508ZM244.389 296.12V341H238.949V296.12H244.389ZM259.071 341V296.12H290.555V301.22H264.511V315.704H284.775V320.804H264.511V335.9H291.575V341H259.071ZM337.658 296.12V341H330.926L312.158 310.944L307.398 302.512H307.33L307.602 309.312V341H302.434V296.12H309.166L327.866 326.04L332.694 334.676H332.762L332.49 327.808V296.12H337.658ZM383.923 296.12V301.22H368.283V341H362.843V301.22H347.203V296.12H383.923ZM393.41 341V296.12H424.894V301.22H398.85V315.704H419.114V320.804H398.85V335.9H425.914V341H393.41ZM438.474 332.84C439.788 332.84 440.854 333.248 441.67 334.064C442.486 334.88 442.894 335.945 442.894 337.26C442.894 338.575 442.486 339.64 441.67 340.456C440.854 341.272 439.788 341.68 438.474 341.68C437.159 341.68 436.094 341.272 435.278 340.456C434.462 339.64 434.054 338.575 434.054 337.26C434.054 335.945 434.462 334.88 435.278 334.064C436.094 333.248 437.159 332.84 438.474 332.84Z" fill="#068FFF"/>
</svg>
