<svg width="33" height="32" viewBox="0 0 33 32" fill="none" xmlns="http://www.w3.org/2000/svg">
<rect x="1" y="0.5" width="31" height="31" rx="15.5" fill="white"/>
<rect x="1" y="0.5" width="31" height="31" rx="15.5" stroke="#D1D1D1"/>
<path d="M15.659 22.8666C15.8629 23.0528 16.1792 23.0384 16.3654 22.8345C16.5515 22.6305 16.5371 22.3143 16.3332 22.1281L10.1653 16.4974H23.9961C24.2722 16.4974 24.4961 16.2735 24.4961 15.9974C24.4961 15.7212 24.2722 15.4974 23.9961 15.4974H10.1682L16.3332 9.86927C16.5371 9.68309 16.5515 9.36684 16.3654 9.16289C16.1792 8.95895 15.8629 8.94456 15.659 9.13074L8.74263 15.4448C8.60268 15.5725 8.52285 15.7401 8.50314 15.9132C8.49851 15.9406 8.49609 15.9687 8.49609 15.9974C8.49609 16.0242 8.49821 16.0506 8.50229 16.0763C8.52047 16.2522 8.60058 16.4229 8.74263 16.5526L15.659 22.8666Z" fill="#3F3F46"/>
</svg>
