<svg width="33" height="32" viewBox="0 0 33 32" fill="none" xmlns="http://www.w3.org/2000/svg">
<rect x="1" y="0.5" width="31" height="31" rx="15.5" fill="white"/>
<rect x="1" y="0.5" width="31" height="31" rx="15.5" stroke="#D1D1D1"/>
<path d="M17.3371 9.13074C17.1332 8.94456 16.8169 8.95895 16.6307 9.16289C16.4446 9.36683 16.459 9.68309 16.6629 9.86927L22.8307 15.5H9C8.72386 15.5 8.5 15.7239 8.5 16C8.5 16.2761 8.72386 16.5 9 16.5H22.8279L16.6629 22.1281C16.459 22.3143 16.4446 22.6305 16.6307 22.8345C16.8169 23.0384 17.1332 23.0528 17.3371 22.8666L24.2535 16.5526C24.3934 16.4248 24.4732 16.2573 24.493 16.0841C24.4976 16.0568 24.5 16.0287 24.5 16C24.5 15.9731 24.4979 15.9468 24.4938 15.921C24.4756 15.7451 24.3955 15.5745 24.2535 15.4448L17.3371 9.13074Z" fill="#3F3F46"/>
</svg>
