<svg width="12" height="12" viewBox="0 0 12 12" fill="none" xmlns="http://www.w3.org/2000/svg">
<path d="M0.0885911 0.215694L0.146447 0.146447C0.320013 -0.0271197 0.589437 -0.046405 0.784306 0.0885911L0.853553 0.146447L6 5.293L11.1464 0.146447C11.32 -0.0271197 11.5894 -0.046405 11.7843 0.0885911L11.8536 0.146447C12.0271 0.320013 12.0464 0.589437 11.9114 0.784306L11.8536 0.853553L6.707 6L11.8536 11.1464C12.0271 11.32 12.0464 11.5894 11.9114 11.7843L11.8536 11.8536C11.68 12.0271 11.4106 12.0464 11.2157 11.9114L11.1464 11.8536L6 6.707L0.853553 11.8536C0.679987 12.0271 0.410563 12.0464 0.215694 11.9114L0.146447 11.8536C-0.0271197 11.68 -0.046405 11.4106 0.0885911 11.2157L0.146447 11.1464L5.293 6L0.146447 0.853553C-0.0271197 0.679987 -0.046405 0.410563 0.0885911 0.215694L0.146447 0.146447L0.0885911 0.215694Z" fill="#52525B"/>
</svg>
