<svg width="32" height="32" viewBox="0 0 32 32" fill="none" xmlns="http://www.w3.org/2000/svg">
<path d="M32 25.8431C32 29.2549 29.2549 32 25.8431 32H6.15685C2.74508 32 0 29.2549 0 25.8431V6.15686C0 2.74509 2.74508 0 6.15685 0H25.8431C29.2549 0 32 2.74509 32 6.15686V25.8431Z" fill="#3F3F46"/>
<path d="M24.7842 20L19.8038 17.1765C19.6862 17.0981 19.49 17.1765 19.4508 17.2942C18.941 18.7059 17.5684 19.6863 15.9998 19.6863C13.9606 19.6863 12.3136 18.0393 12.3136 16C12.3136 13.9608 13.9606 12.3138 15.9998 12.3138C17.5684 12.3138 18.941 13.2942 19.4508 14.7059C19.49 14.8628 19.6862 14.902 19.8038 14.8236L24.7449 12C24.8626 11.9216 24.9018 11.804 24.8626 11.6863C24.6665 11.2942 24.4704 10.9412 24.2351 10.5883C24.1567 10.4706 24.0391 10.4314 23.9215 10.5098L19.843 12.8236L22.8626 9.25493C22.941 9.1765 22.941 9.01964 22.8626 8.90199C22.5488 8.58827 22.2351 8.31376 21.8822 8.07846C21.7645 8.00003 21.6469 8.00003 21.5293 8.11768L18.4704 11.7255L20.1175 7.29415C20.1567 7.1765 20.1175 7.01964 19.9999 6.98043C19.6077 6.82356 19.2156 6.6667 18.8234 6.54905C18.7058 6.50984 18.5489 6.58826 18.5097 6.70591L16.8626 11.1765V6.39219C16.8626 6.27454 16.745 6.15689 16.6273 6.15689C16.4312 6.15689 16.1959 6.11768 15.9998 6.11768C10.5488 6.11768 6.15674 10.5098 6.15674 15.9608C6.15674 21.4118 10.5488 25.804 15.9998 25.804C16.1959 25.804 16.4312 25.804 16.6273 25.7647C16.745 25.7647 16.8626 25.6471 16.8626 25.5294V20.7451L18.5097 25.2157C18.5489 25.3334 18.6666 25.4118 18.8234 25.3726C19.2156 25.2549 19.647 25.0981 19.9999 24.9412C20.1175 24.902 20.1567 24.7451 20.1175 24.6275L18.4704 20.1961L21.5293 23.804C21.6077 23.9216 21.7645 23.9216 21.8822 23.8432C22.2351 23.6079 22.5488 23.3334 22.8626 23.0196C22.941 22.9412 22.941 22.7844 22.8626 22.6667L19.843 19.0981L23.9215 21.4118C24.0391 21.4902 24.1959 21.451 24.2351 21.3334C24.4704 20.9804 24.6665 20.6275 24.8626 20.2353C24.941 20.1961 24.8626 20.0393 24.7842 20Z" fill="#FAFAFA"/>
</svg>
