<svg width="377" height="72" viewBox="0 0 377 72" fill="none" xmlns="http://www.w3.org/2000/svg">
<path d="M162.176 18C150.353 18 144.882 26.0294 144.882 36C144.882 45.9706 150.353 54 162.176 54C174 54 179.471 45.9706 179.471 36C179.471 26.0294 174 18 162.176 18ZM162.176 48.2647C154.323 48.2647 150.618 42.7941 150.618 36C150.618 29.2059 154.235 23.7353 162.176 23.7353C170.118 23.7353 173.735 29.2059 173.735 36C173.735 42.7941 170.029 48.2647 162.176 48.2647Z" fill="#FAFAFA"/>
<path d="M125.382 23.7353C130.676 23.7353 134.118 26.2059 135.706 29.9118L141.088 27.5294C138.706 21.8823 133.588 17.9117 125.382 17.9117C113.559 17.9117 108.088 25.9412 108.088 35.9117C108.088 45.8823 113.559 53.9117 125.382 53.9117C133.588 53.9117 138.706 50.0294 141.088 44.2941L135.706 41.9118C134.118 45.6176 130.676 48.1764 125.382 48.1764C117.529 48.1764 113.824 42.7059 113.824 35.9117C113.824 29.1176 117.441 23.7353 125.382 23.7353Z" fill="#FAFAFA"/>
<path d="M278.029 23.7353C283.323 23.7353 286.765 26.2059 288.353 29.9118L293.735 27.5294C291.353 21.8823 286.235 17.9117 278.029 17.9117C266.206 17.9117 260.735 25.9412 260.735 35.9117C260.735 45.8823 266.206 53.9117 278.029 53.9117C286.235 53.9117 291.353 50.0294 293.735 44.2941L288.353 41.9118C286.765 45.6176 283.323 48.1764 278.029 48.1764C270.176 48.1764 266.471 42.7059 266.471 35.9117C266.559 29.2059 270.176 23.7353 278.029 23.7353Z" fill="#FAFAFA"/>
<path d="M305.206 10.0588H299.471V47.5588C299.471 50.7353 302.029 53.2941 305.206 53.2941H317.47V47.5588H305.912C305.471 47.5588 305.206 47.2059 305.206 46.8529V24.5294H317.47V18.7941H305.206V10.0588Z" fill="#FAFAFA"/>
<path d="M238.412 18C226.588 18 221.118 26.0294 221.118 36C221.118 45.9706 226.588 54 238.412 54C246.618 54 251.735 50.1176 254.118 44.3824L248.735 42C247.059 45.7059 243.706 48.2647 238.412 48.2647C231.088 48.2647 227.471 43.5 226.941 37.4118H255.706V36C255.706 26.0294 250.235 18 238.412 18ZM238.412 23.7353C244.5 23.7353 248.029 27 249.353 31.6765H227.47C228.794 27.0882 232.324 23.7353 238.412 23.7353Z" fill="#FAFAFA"/>
<path d="M376.765 36C376.765 26.0294 371.294 18 359.471 18C347.647 18 342.176 26.0294 342.176 36C342.176 45.9706 347.647 54 359.471 54C367.676 54 372.794 50.1176 375.177 44.3824L369.794 42C368.118 45.7059 364.765 48.2647 359.471 48.2647C352.147 48.2647 348.529 43.5 348 37.4118H376.765V36ZM359.471 23.7353C365.559 23.7353 369.088 27 370.412 31.6765H348.53C349.853 27.0882 353.382 23.7353 359.471 23.7353Z" fill="#FAFAFA"/>
<path d="M202.412 18C196.235 18 192.706 20.5588 190.765 24.5294H190.147V18.7059H184.412V53.2941H190.147V36C190.147 29.2059 191.382 23.7353 200.559 23.7353C209.735 23.7353 210.265 29.2059 210.265 36V53.2941H216V36C216.088 26.0294 213.529 18 202.412 18Z" fill="#FAFAFA"/>
<path d="M329.471 24.4412H328.853V18.7059H323.118V53.2941H328.853V36C328.853 29.2059 330.088 23.7353 339.265 23.7353H341.03V18C334.941 18 331.412 20.4706 329.471 24.4412Z" fill="#FAFAFA"/>
<path d="M71.9999 58.1471C71.9999 65.8235 65.8235 72 58.147 72H13.8529C6.17643 72 0 65.8235 0 58.1471V13.8529C0 6.17646 6.17643 0 13.8529 0H58.147C65.8235 0 71.9999 6.17646 71.9999 13.8529V58.1471Z" fill="#3F3F46"/>
<path d="M55.7647 45L44.5588 38.6471C44.2941 38.4706 43.8528 38.647 43.7646 38.9117C42.6175 42.0882 39.5293 44.2941 35.9998 44.2941C31.4116 44.2941 27.7058 40.5882 27.7058 36C27.7058 31.4118 31.4116 27.7059 35.9998 27.7059C39.5293 27.7059 42.6175 29.9118 43.7646 33.0882C43.8528 33.4412 44.2941 33.5294 44.5588 33.3529L55.6764 27C55.9411 26.8235 56.0293 26.5588 55.9411 26.2941C55.4999 25.4118 55.0587 24.6176 54.5293 23.8235C54.3528 23.5588 54.0882 23.4706 53.8235 23.647L44.6469 28.8529L51.441 20.8235C51.6175 20.647 51.6175 20.2941 51.441 20.0294C50.7351 19.3235 50.0293 18.7059 49.2351 18.1764C48.9704 18 48.7058 18 48.4411 18.2647L41.5587 26.3823L45.2645 16.4117C45.3528 16.147 45.2647 15.7941 45 15.7059C44.1177 15.3529 43.2353 15 42.353 14.7353C42.0882 14.647 41.7353 14.8235 41.647 15.0882L37.9412 25.1471V14.3823C37.9412 14.1176 37.6764 13.8529 37.4117 13.8529C36.9705 13.8529 36.441 13.7647 35.9998 13.7647C23.7351 13.7647 13.8529 23.647 13.8529 35.9118C13.8529 48.1765 23.7351 58.0588 35.9998 58.0588C36.441 58.0588 36.9705 58.0588 37.4117 57.9706C37.6764 57.9706 37.9412 57.7059 37.9412 57.4412V46.6765L41.647 56.7353C41.7353 57 42 57.1765 42.353 57.0882C43.2353 56.8235 44.2059 56.4706 45 56.1176C45.2647 56.0294 45.3528 55.6765 45.2645 55.4118L41.5587 45.4412L48.4411 53.5588C48.6176 53.8235 48.9704 53.8235 49.2351 53.6471C50.0293 53.1176 50.7351 52.5 51.441 51.7941C51.6175 51.6176 51.6175 51.2647 51.441 51L44.6469 42.9706L53.8235 48.1765C54.0882 48.3529 54.441 48.2647 54.5293 48C55.0587 47.2059 55.4999 46.4118 55.9411 45.5294C56.1176 45.4412 55.9412 45.0882 55.7647 45Z" fill="#FAFAFA"/>
</svg>
