<svg width="168" height="32" viewBox="0 0 168 32" fill="none" xmlns="http://www.w3.org/2000/svg">
<path d="M72.5778 8C67.3229 8 64.8916 11.5686 64.8916 16C64.8916 20.4314 67.3229 24 72.5778 24C77.8327 24 80.2641 20.4314 80.2641 16C80.2641 11.5686 77.8327 8 72.5778 8ZM72.5778 21.451C69.0876 21.451 67.4406 19.0196 67.4406 16C67.4406 12.9804 69.0484 10.549 72.5778 10.549C76.1072 10.549 77.7151 12.9804 77.7151 16C77.7151 19.0196 76.068 21.451 72.5778 21.451Z" fill="#FAFAFA"/>
<path d="M56.2253 10.5491C58.5782 10.5491 60.1076 11.6471 60.8135 13.2942L63.2057 12.2353C62.1469 9.72552 59.8723 7.96082 56.2253 7.96082C50.9704 7.96082 48.5391 11.5294 48.5391 15.9608C48.5391 20.3922 50.9704 23.9608 56.2253 23.9608C59.8723 23.9608 62.1469 22.2353 63.2057 19.6863L60.8135 18.6275C60.1076 20.2745 58.5782 21.4118 56.2253 21.4118C52.7351 21.4118 51.0881 18.9804 51.0881 15.9608C51.0881 12.9412 52.6959 10.5491 56.2253 10.5491Z" fill="#FAFAFA"/>
<path d="M124.068 10.5491C126.421 10.5491 127.95 11.6471 128.656 13.2942L131.048 12.2353C129.99 9.72552 127.715 7.96082 124.068 7.96082C118.813 7.96082 116.382 11.5294 116.382 15.9608C116.382 20.3922 118.813 23.9608 124.068 23.9608C127.715 23.9608 129.99 22.2353 131.048 19.6863L128.656 18.6275C127.95 20.2745 126.421 21.4118 124.068 21.4118C120.578 21.4118 118.931 18.9804 118.931 15.9608C118.97 12.9804 120.578 10.5491 124.068 10.5491Z" fill="#FAFAFA"/>
<path d="M136.147 4.47058H133.598V21.1373C133.598 22.549 134.735 23.6863 136.147 23.6863H141.598V21.1373H136.46C136.264 21.1373 136.147 20.9804 136.147 20.8235V10.902H141.598V8.35293H136.147V4.47058Z" fill="#FAFAFA"/>
<path d="M106.461 8C101.206 8 98.7744 11.5686 98.7744 16C98.7744 20.4314 101.206 24 106.461 24C110.108 24 112.382 22.2745 113.441 19.7255L111.049 18.6667C110.304 20.3137 108.814 21.451 106.461 21.451C103.206 21.451 101.598 19.3333 101.363 16.6275H114.147V16C114.147 11.5686 111.716 8 106.461 8ZM106.461 10.549C109.167 10.549 110.735 12 111.323 14.0784H101.598C102.186 12.0392 103.755 10.549 106.461 10.549Z" fill="#FAFAFA"/>
<path d="M167.951 16C167.951 11.5686 165.519 8 160.264 8C155.01 8 152.578 11.5686 152.578 16C152.578 20.4314 155.01 24 160.264 24C163.911 24 166.186 22.2745 167.245 19.7255L164.853 18.6667C164.108 20.3137 162.617 21.451 160.264 21.451C157.01 21.451 155.402 19.3333 155.166 16.6275H167.951V16ZM160.264 10.549C162.97 10.549 164.539 12 165.127 14.0784H155.402C155.99 12.0392 157.559 10.549 160.264 10.549Z" fill="#FAFAFA"/>
<path d="M90.4609 8C87.7158 8 86.1472 9.13725 85.2844 10.902H85.01V8.31372H82.4609V23.6863H85.01V16C85.01 12.9804 85.5589 10.549 89.6373 10.549C93.7158 10.549 93.9511 12.9804 93.9511 16V23.6863H96.5001V16C96.5393 11.5686 95.4021 8 90.4609 8Z" fill="#FAFAFA"/>
<path d="M146.931 10.8627H146.656V8.31372H144.107V23.6863H146.656V16C146.656 12.9804 147.205 10.549 151.284 10.549H152.068V8C149.362 8 147.794 9.09803 146.931 10.8627Z" fill="#FAFAFA"/>
<path d="M32.5 25.8431C32.5 29.2549 29.7549 32 26.3431 32H6.65685C3.24508 32 0.5 29.2549 0.5 25.8431V6.15686C0.5 2.74509 3.24508 0 6.65685 0H26.3431C29.7549 0 32.5 2.74509 32.5 6.15686V25.8431Z" fill="#3F3F46"/>
<path d="M25.2847 20L20.3043 17.1765C20.1867 17.0981 19.9905 17.1765 19.9513 17.2942C19.4415 18.7059 18.0689 19.6863 16.5003 19.6863C14.4611 19.6863 12.8141 18.0393 12.8141 16C12.8141 13.9608 14.4611 12.3138 16.5003 12.3138C18.0689 12.3138 19.4415 13.2942 19.9513 14.7059C19.9905 14.8628 20.1867 14.902 20.3043 14.8236L25.2454 12C25.3631 11.9216 25.4023 11.804 25.3631 11.6863C25.167 11.2942 24.9709 10.9412 24.7356 10.5883C24.6572 10.4706 24.5396 10.4314 24.422 10.5098L20.3435 12.8236L23.3631 9.25493C23.4415 9.1765 23.4415 9.01964 23.3631 8.90199C23.0493 8.58827 22.7356 8.31376 22.3827 8.07846C22.265 8.00003 22.1474 8.00003 22.0298 8.11768L18.9709 11.7255L20.618 7.29415C20.6572 7.1765 20.618 7.01964 20.5004 6.98043C20.1082 6.82356 19.7161 6.6667 19.3239 6.54905C19.2063 6.50984 19.0494 6.58826 19.0102 6.70591L17.3631 11.1765V6.39219C17.3631 6.27454 17.2454 6.15689 17.1278 6.15689C16.9317 6.15689 16.6964 6.11768 16.5003 6.11768C11.0493 6.11768 6.65723 10.5098 6.65723 15.9608C6.65723 21.4118 11.0493 25.804 16.5003 25.804C16.6964 25.804 16.9317 25.804 17.1278 25.7647C17.2454 25.7647 17.3631 25.6471 17.3631 25.5294V20.7451L19.0102 25.2157C19.0494 25.3334 19.1671 25.4118 19.3239 25.3726C19.7161 25.2549 20.1474 25.0981 20.5004 24.9412C20.618 24.902 20.6572 24.7451 20.618 24.6275L18.9709 20.1961L22.0298 23.804C22.1082 23.9216 22.265 23.9216 22.3827 23.8432C22.7356 23.6079 23.0493 23.3334 23.3631 23.0196C23.4415 22.9412 23.4415 22.7844 23.3631 22.6667L20.3435 19.0981L24.422 21.4118C24.5396 21.4902 24.6964 21.451 24.7356 21.3334C24.9709 20.9804 25.167 20.6275 25.3631 20.2353C25.4415 20.1961 25.3631 20.0393 25.2847 20Z" fill="#FAFAFA"/>
</svg>
