<svg width="18" height="18" viewBox="0 0 18 18" fill="none" xmlns="http://www.w3.org/2000/svg">
<path d="M0.910503 6.38266C1.27979 5.24053 1.88814 4.19213 2.69084 3.30364C2.82658 3.15339 3.03954 3.09984 3.2302 3.16802L5.14848 3.85392C5.66856 4.03977 6.24082 3.76883 6.42668 3.24875C6.44495 3.19762 6.45903 3.14507 6.46876 3.09173L6.83422 1.08573C6.87055 0.886273 7.02373 0.728505 7.22203 0.686297C7.80222 0.562802 8.39709 0.5 8.99977 0.5C9.60207 0.5 10.1966 0.562725 10.7765 0.686072C10.9747 0.728241 11.1279 0.88591 11.1643 1.08529L11.5308 3.09165C11.6298 3.63497 12.1506 3.9951 12.6939 3.89601C12.7474 3.88627 12.7999 3.87219 12.851 3.85395L14.7693 3.16802C14.96 3.09984 15.173 3.15339 15.3087 3.30364C16.1114 4.19213 16.7197 5.24053 17.089 6.38266C17.1513 6.57534 17.0913 6.78658 16.9369 6.91764L15.3821 8.23773C14.9611 8.5952 14.9096 9.22627 15.267 9.64726C15.3022 9.68865 15.3407 9.72712 15.382 9.76225L16.9369 11.0824C17.0913 11.2134 17.1513 11.4247 17.089 11.6173C16.7197 12.7595 16.1114 13.8079 15.3087 14.6964C15.173 14.8466 14.96 14.9002 14.7693 14.832L12.8511 14.1461C12.331 13.9602 11.7587 14.2312 11.5729 14.7512C11.5546 14.8024 11.5405 14.8549 11.5307 14.9085L11.1643 16.9147C11.1279 17.1141 10.9747 17.2718 10.7765 17.3139C10.1966 17.4373 9.60207 17.5 8.99977 17.5C8.39709 17.5 7.80222 17.4372 7.22203 17.3137C7.02373 17.2715 6.87055 17.1137 6.83422 16.9143L6.46877 14.9084C6.36969 14.365 5.84891 14.0049 5.30559 14.104C5.25216 14.1137 5.19962 14.1278 5.14857 14.1461L3.2302 14.832C3.03954 14.9002 2.82658 14.8466 2.69084 14.6964C1.88814 13.8079 1.27979 12.7595 0.910503 11.6173C0.848202 11.4247 0.908275 11.2134 1.06265 11.0824L2.61749 9.76227C3.03848 9.4048 3.08997 8.77373 2.7325 8.35274C2.69735 8.31135 2.65888 8.27288 2.61751 8.23775L1.06265 6.91764C0.908275 6.78658 0.848202 6.57534 0.910503 6.38266ZM1.97105 6.37709L3.26475 7.47546C3.34754 7.54576 3.42447 7.62269 3.49477 7.70548C4.20971 8.54746 4.10673 9.8096 3.26472 10.5246L1.97105 11.6229C2.2631 12.4051 2.68455 13.1322 3.21599 13.7751L4.81197 13.2044C4.91425 13.1679 5.01933 13.1397 5.12618 13.1202C6.21283 12.922 7.25438 13.6423 7.45256 14.729L7.75653 16.3975C8.1644 16.4655 8.57976 16.5 8.99977 16.5C9.4195 16.5 9.83457 16.4656 10.2422 16.3976L10.547 14.7289C10.5665 14.6221 10.5946 14.517 10.6312 14.4147C11.0029 13.3746 12.1474 12.8327 13.1877 13.2044L14.7835 13.7751C15.315 13.1322 15.7364 12.4051 16.0285 11.6229L14.7348 10.5245C14.652 10.4542 14.5751 10.3773 14.5048 10.2945C13.7898 9.45254 13.8928 8.1904 14.7348 7.47544L16.0285 6.37709C15.7364 5.59486 15.315 4.86783 14.7835 4.22494L13.1876 4.79559C13.0853 4.83214 12.9802 4.8603 12.8734 4.87979C11.7867 5.07796 10.7452 4.3577 10.547 3.27119L10.2422 1.60235C9.83457 1.53443 9.4195 1.5 8.99977 1.5C8.57976 1.5 8.1644 1.53448 7.75653 1.60249L7.45255 3.27105C7.43306 3.37791 7.4049 3.48299 7.36835 3.58527C6.99665 4.62542 5.85212 5.1673 4.81188 4.79556L3.21599 4.22494C2.68455 4.86783 2.2631 5.59486 1.97105 6.37709ZM6.49977 9C6.49977 7.61929 7.61906 6.5 8.99977 6.5C10.3805 6.5 11.4998 7.61929 11.4998 9C11.4998 10.3807 10.3805 11.5 8.99977 11.5C7.61906 11.5 6.49977 10.3807 6.49977 9ZM7.49977 9C7.49977 9.82843 8.17134 10.5 8.99977 10.5C9.8282 10.5 10.4998 9.82843 10.4998 9C10.4998 8.17157 9.8282 7.5 8.99977 7.5C8.17134 7.5 7.49977 8.17157 7.49977 9Z" fill="#52525B"/>
</svg>
