<svg width="32" height="32" viewBox="0 0 32 32" fill="none" xmlns="http://www.w3.org/2000/svg">
<rect x="0.5" y="0.5" width="31" height="31" rx="15.5" fill="white"/>
<rect x="0.5" y="0.5" width="31" height="31" rx="15.5" stroke="#D1D1D1"/>
<path d="M16.8371 9.13074C16.6332 8.94456 16.3169 8.95895 16.1307 9.16289C15.9446 9.36683 15.959 9.68309 16.1629 9.86927L22.3307 15.5H8.5C8.22386 15.5 8 15.7239 8 16C8 16.2761 8.22386 16.5 8.5 16.5H22.3279L16.1629 22.1281C15.959 22.3143 15.9446 22.6305 16.1307 22.8345C16.3169 23.0384 16.6332 23.0528 16.8371 22.8666L23.7535 16.5526C23.8934 16.4248 23.9732 16.2573 23.993 16.0841C23.9976 16.0568 24 16.0287 24 16C24 15.9731 23.9979 15.9468 23.9938 15.921C23.9756 15.7451 23.8955 15.5745 23.7535 15.4448L16.8371 9.13074Z" fill="#3F3F46"/>
</svg>
