<svg width="20" height="20" viewBox="0 0 20 20" fill="none" xmlns="http://www.w3.org/2000/svg">
<path d="M12.1196 12.8267L16.1464 16.8536C16.3417 17.0488 16.6583 17.0488 16.8536 16.8536C17.0488 16.6583 17.0488 16.3417 16.8536 16.1464L3.85355 3.14645C3.65829 2.95118 3.34171 2.95118 3.14645 3.14645C2.95118 3.34171 2.95118 3.65829 3.14645 3.85355L6.37624 7.08334C5.90117 7.4183 5.5126 7.80026 5.19877 8.18295C4.75443 8.72477 4.46154 9.26493 4.27931 9.66977C4.18795 9.87274 4.12369 10.0433 4.08166 10.1653C4.06063 10.2264 4.03453 10.3105 4.03453 10.3105L4.01687 10.3719C4.01687 10.3719 3.94098 10.8691 4.37202 10.9833C4.63879 11.054 4.91251 10.8948 4.98346 10.6282L4.98444 10.6247L4.99179 10.5997C4.9989 10.5762 5.01051 10.5393 5.02715 10.491C5.06047 10.3942 5.11375 10.2523 5.19119 10.0802C5.34655 9.73507 5.59627 9.27523 5.97201 8.81706C6.26363 8.46146 6.63213 8.10494 7.09595 7.80306L8.67356 9.38067C7.9688 9.82277 7.50024 10.6067 7.50024 11.5C7.50024 12.8807 8.61953 14 10.0002 14C10.8936 14 11.6775 13.5314 12.1196 12.8267ZM11.3807 12.0878C11.1521 12.6241 10.62 13 10.0002 13C9.17182 13 8.50024 12.3284 8.50024 11.5C8.50024 10.8802 8.87616 10.3482 9.41244 10.1195L11.3807 12.0878ZM8.31962 6.19853L9.174 7.05291C9.43366 7.01852 9.70875 7 10.0002 7C12.0445 7 13.2857 7.9115 14.0283 8.81706C14.4041 9.27523 14.6538 9.73507 14.8091 10.0802C14.8866 10.2523 14.9399 10.3942 14.9732 10.491C14.9898 10.5393 15.0014 10.5762 15.0085 10.5997L15.0159 10.6247L15.0169 10.6282L15.0172 10.6294C15.0885 10.8956 15.3618 11.054 15.6283 10.9833C15.8952 10.9125 16.0542 10.6388 15.9835 10.3719L15.9832 10.3707L15.9827 10.3692L15.9816 10.365L15.9781 10.3524C15.9752 10.342 15.9711 10.328 15.9658 10.3105C15.9552 10.2754 15.9397 10.2264 15.9187 10.1653C15.8766 10.0433 15.8124 9.87274 15.721 9.66977C15.5388 9.26493 15.2459 8.72477 14.8016 8.18295C13.904 7.0885 12.3952 6 10.0002 6C9.38264 6 8.82403 6.07236 8.31962 6.19853Z" fill="#616161"/>
</svg>
