<svg width="13" height="9" viewBox="0 0 13 9" fill="none" xmlns="http://www.w3.org/2000/svg">
<path d="M0.5 0.5C0.5 0.223858 0.723858 0 1 0H12C12.2761 0 12.5 0.223858 12.5 0.5C12.5 0.776142 12.2761 1 12 1H1C0.723858 1 0.5 0.776142 0.5 0.5ZM2.5 4.5C2.5 4.22386 2.72386 4 3 4H10C10.2761 4 10.5 4.22386 10.5 4.5C10.5 4.77614 10.2761 5 10 5H3C2.72386 5 2.5 4.77614 2.5 4.5ZM4.5 8.5C4.5 8.22386 4.72386 8 5 8H8C8.27614 8 8.5 8.22386 8.5 8.5C8.5 8.77614 8.27614 9 8 9H5C4.72386 9 4.5 8.77614 4.5 8.5Z" fill="#242424"/>
</svg>
