<svg width="15" height="15" viewBox="0 0 15 15" fill="none" xmlns="http://www.w3.org/2000/svg">
<path d="M6.4975 0.388112C7.06767 -0.124163 7.93233 -0.124162 8.5025 0.388112L14.0025 5.32965C14.3191 5.61414 14.5 6.01977 14.5 6.44544V13.4996C14.5 14.328 13.8284 14.9996 13 14.9996H10.5C9.67157 14.9996 9 14.328 9 13.4996V9.99957C9 9.72343 8.77614 9.49957 8.5 9.49957H6.5C6.22386 9.49957 6 9.72343 6 9.99957V13.4996C6 14.328 5.32843 14.9996 4.5 14.9996H2C1.17157 14.9996 0.5 14.328 0.5 13.4996V6.44544C0.5 6.01977 0.680859 5.61414 0.997502 5.32965L6.4975 0.388112ZM7.83417 1.13197C7.64411 0.961217 7.35589 0.961217 7.16583 1.13197L1.66583 6.07351C1.56029 6.16834 1.5 6.30355 1.5 6.44544V13.4996C1.5 13.7757 1.72386 13.9996 2 13.9996H4.5C4.77614 13.9996 5 13.7757 5 13.4996V9.99957C5 9.17114 5.67157 8.49957 6.5 8.49957H8.5C9.32843 8.49957 10 9.17114 10 9.99957V13.4996C10 13.7757 10.2239 13.9996 10.5 13.9996H13C13.2761 13.9996 13.5 13.7757 13.5 13.4996V6.44544C13.5 6.30355 13.4397 6.16834 13.3342 6.07351L7.83417 1.13197Z" fill="#E4E4E7"/>
</svg>
