<svg width="14" height="15" viewBox="0 0 14 15" fill="none" xmlns="http://www.w3.org/2000/svg">
<path d="M5.9975 0.388112C6.56767 -0.124163 7.43233 -0.124162 8.0025 0.388112L13.5025 5.32965C13.8191 5.61414 14 6.01977 14 6.44544V13.4996C14 14.328 13.3284 14.9996 12.5 14.9996H10C9.17157 14.9996 8.5 14.328 8.5 13.4996V9.99957C8.5 9.72343 8.27614 9.49957 8 9.49957H6C5.72386 9.49957 5.5 9.72343 5.5 9.99957V13.4996C5.5 14.328 4.82843 14.9996 4 14.9996H1.5C0.671573 14.9996 0 14.328 0 13.4996V6.44544C0 6.01977 0.180859 5.61414 0.497502 5.32965L5.9975 0.388112ZM7.33417 1.13197C7.14411 0.961217 6.85589 0.961217 6.66583 1.13197L1.16583 6.07351C1.06029 6.16834 1 6.30355 1 6.44544V13.4996C1 13.7757 1.22386 13.9996 1.5 13.9996H4C4.27614 13.9996 4.5 13.7757 4.5 13.4996V9.99957C4.5 9.17114 5.17157 8.49957 6 8.49957H8C8.82843 8.49957 9.5 9.17114 9.5 9.99957V13.4996C9.5 13.7757 9.72386 13.9996 10 13.9996H12.5C12.7761 13.9996 13 13.7757 13 13.4996V6.44544C13 6.30355 12.9397 6.16834 12.8342 6.07351L7.33417 1.13197Z" fill="#068FFF"/>
</svg>
