<svg width="32" height="32" viewBox="0 0 32 32" fill="none" xmlns="http://www.w3.org/2000/svg">
<rect x="0.5" y="0.5" width="31" height="31" rx="15.5" fill="white"/>
<rect x="0.5" y="0.5" width="31" height="31" rx="15.5" stroke="#D1D1D1"/>
<path d="M15.159 22.8666C15.3629 23.0528 15.6792 23.0384 15.8654 22.8345C16.0515 22.6305 16.0371 22.3143 15.8332 22.1281L9.66535 16.4974H23.4961C23.7722 16.4974 23.9961 16.2735 23.9961 15.9974C23.9961 15.7212 23.7722 15.4974 23.4961 15.4974H9.66824L15.8332 9.86927C16.0371 9.68309 16.0515 9.36684 15.8654 9.16289C15.6792 8.95895 15.3629 8.94456 15.159 9.13074L8.24263 15.4448C8.10268 15.5725 8.02285 15.7401 8.00314 15.9132C7.99851 15.9406 7.99609 15.9687 7.99609 15.9974C7.99609 16.0242 7.99821 16.0506 8.00229 16.0763C8.02047 16.2522 8.10058 16.4229 8.24263 16.5526L15.159 22.8666Z" fill="#3F3F46"/>
</svg>
