<svg width="14" height="14" viewBox="0 0 14 14" fill="none" xmlns="http://www.w3.org/2000/svg">
<path d="M9.11958 9.82668L13.1464 13.8536C13.3417 14.0488 13.6583 14.0488 13.8536 13.8536C14.0488 13.6583 14.0488 13.3417 13.8536 13.1464L0.853553 0.146447C0.658291 -0.0488155 0.341709 -0.0488155 0.146447 0.146446C-0.0488156 0.341709 -0.0488155 0.658291 0.146447 0.853553L3.37624 4.08334C2.90117 4.4183 2.5126 4.80026 2.19877 5.18295C1.75443 5.72477 1.46154 6.26493 1.27931 6.66977C1.18795 6.87274 1.12369 7.04329 1.08166 7.1653C1.06063 7.22636 1.03453 7.31047 1.03453 7.31047L1.01687 7.37186C1.01687 7.37186 0.940979 7.86907 1.37202 7.9833C1.63879 8.05404 1.91251 7.8948 1.98346 7.62815L1.98444 7.62471L1.99179 7.5997C1.9989 7.57616 2.01051 7.53927 2.02715 7.49095C2.06047 7.39421 2.11375 7.25227 2.19119 7.08023C2.34655 6.73507 2.59627 6.27523 2.97201 5.81706C3.26363 5.46146 3.63213 5.10494 4.09595 4.80306L5.67356 6.38067C4.9688 6.82277 4.50024 7.60667 4.50024 8.5C4.50024 9.88071 5.61953 11 7.00024 11C7.89358 11 8.67747 10.5314 9.11958 9.82668ZM8.3807 9.0878C8.15205 9.62408 7.62005 10 7.00024 10C6.17182 10 5.50024 9.32843 5.50024 8.5C5.50024 7.88019 5.87616 7.34819 6.41244 7.11955L8.3807 9.0878ZM5.31962 3.19853L6.174 4.05291C6.43366 4.01852 6.70875 4 7.00017 4C9.0445 4 10.2857 4.9115 11.0283 5.81706C11.4041 6.27523 11.6538 6.73507 11.8091 7.08023C11.8866 7.25227 11.9399 7.39421 11.9732 7.49095C11.9898 7.53927 12.0014 7.57616 12.0085 7.5997L12.0159 7.62471L12.0169 7.62815L12.0172 7.62937C12.0885 7.89555 12.3618 8.05397 12.6283 7.9833C12.8952 7.91253 13.0542 7.63878 12.9835 7.37186L12.9832 7.37069L12.9827 7.36916L12.9816 7.365L12.9781 7.35236C12.9752 7.34204 12.9711 7.328 12.9658 7.31047C12.9552 7.27541 12.9397 7.22636 12.9187 7.1653C12.8766 7.04329 12.8124 6.87274 12.721 6.66977C12.5388 6.26493 12.2459 5.72477 11.8016 5.18295C10.904 4.0885 9.39524 3 7.00017 3C6.38264 3 5.82403 3.07236 5.31962 3.19853Z" fill="#616161"/>
</svg>
