<svg width="21" height="20" viewBox="0 0 21 20" fill="none" xmlns="http://www.w3.org/2000/svg">
<path d="M11.8089 12.016C11.039 12.6318 10.0625 13 9 13C6.51472 13 4.5 10.9853 4.5 8.50002C4.5 6.01473 6.51472 4 9 4C11.4853 4 13.5 6.01473 13.5 8.50002C13.5 9.56252 13.1318 10.539 12.516 11.3088L16.3536 15.1464C16.5488 15.3417 16.5488 15.6583 16.3536 15.8536C16.1583 16.0488 15.8417 16.0488 15.6464 15.8536L11.8089 12.016ZM12.5 8.50002C12.5 6.56701 10.933 5 9 5C7.067 5 5.5 6.56701 5.5 8.50002C5.5 10.433 7.067 12 9 12C10.933 12 12.5 10.433 12.5 8.50002Z" fill="#616161"/>
</svg>
